<svg width="33" height="33" viewBox="0 0 33 33" fill="none" xmlns="http://www.w3.org/2000/svg">
<circle cx="16.5" cy="16.5" r="16.5" fill="#A98EC3"/>
<g clip-path="url(#clip0_1533_2207)">
<path d="M16.0283 25.4568C16.6535 25.4568 17.253 25.2085 17.6951 24.7664C18.1371 24.3244 18.3855 23.7248 18.3855 23.0997H13.6712C13.6712 23.7248 13.9195 24.3244 14.3616 24.7664C14.8036 25.2085 15.4032 25.4568 16.0283 25.4568ZM16.0283 8.86016L15.089 9.04991C14.0235 9.26701 13.0658 9.84557 12.3779 10.6877C11.69 11.5298 11.3142 12.5837 11.314 13.6711C11.314 14.4112 11.1561 16.2604 10.7731 18.0813C10.5845 18.9853 10.3299 19.9269 9.99168 20.7425H22.065C21.7267 19.9269 21.4733 18.9864 21.2836 18.0813C20.9005 16.2604 20.7426 14.4112 20.7426 13.6711C20.7422 12.5839 20.3663 11.5303 19.6784 10.6884C18.9905 9.84654 18.0329 9.26815 16.9676 9.05109L16.0283 8.85899V8.86016ZM23.359 20.7425C23.6219 21.2693 23.9259 21.6866 24.2783 21.9211H7.77832C8.13071 21.6866 8.43478 21.2693 8.69761 20.7425C9.75832 18.6211 10.1355 14.7082 10.1355 13.6711C10.1355 10.8189 12.1626 8.43824 14.8556 7.89491C14.8392 7.73104 14.8573 7.56553 14.9087 7.40908C14.9602 7.25262 15.0438 7.10868 15.1543 6.98654C15.2648 6.8644 15.3997 6.76678 15.5502 6.69997C15.7008 6.63315 15.8636 6.59863 16.0283 6.59863C16.193 6.59863 16.3559 6.63315 16.5064 6.69997C16.657 6.76678 16.7918 6.8644 16.9023 6.98654C17.0128 7.10868 17.0965 7.25262 17.1479 7.40908C17.1994 7.56553 17.2174 7.73104 17.201 7.89491C18.5331 8.16587 19.7307 8.88887 20.5908 9.9415C21.451 10.9941 21.921 12.3117 21.9212 13.6711C21.9212 14.7082 22.2983 18.6211 23.359 20.7425Z" fill="white"/>
</g>
<defs>
<clipPath id="clip0_1533_2207">
<rect width="18.8571" height="18.8571" fill="white" transform="translate(6.59961 6.59961)"/>
</clipPath>
</defs>
</svg>
