<?xml version="1.0" encoding="UTF-8" standalone="no" ?>
<!DOCTYPE svg PUBLIC "-//W3C//DTD SVG 1.1//EN" "http://www.w3.org/Graphics/SVG/1.1/DTD/svg11.dtd">
<svg xmlns="http://www.w3.org/2000/svg" xmlns:xlink="http://www.w3.org/1999/xlink" version="1.1" width="500" height="500" viewBox="0 0 500 500" xml:space="preserve">
<desc>Created with Fabric.js 4.6.0</desc>
<defs>
</defs>
<g transform="matrix(7.28 0 0 7.25 250.16 241.55)" id="0KKrVPppSzslF8gVLUYGD"  >
<path style="stroke: none; stroke-width: 1; stroke-dasharray: none; stroke-linecap: butt; stroke-dashoffset: 0; stroke-linejoin: miter; stroke-miterlimit: 4; fill: rgb(137,143,150); fill-rule: nonzero; opacity: 1;" vector-effect="non-scaling-stroke"  transform=" translate(-47.94, -33.99)" d="M 82.1 43.5 C 82.1 40.7 80.9 38.1 78.8 36.3 C 76.7 34.5 73.9 33.7 71.1 34.2 L 71.1 34 C 71.1 30.2 69.3 26.5 66.1 24.3 C 63 22 59 21.4 55.3 22.6 C 52.2 16.8 45.5 13.8 39.1 15.4 C 32.7 16.9 28.1 22.6 28 29.2 C 23.6 28.4 19.1 30.1 16.4 33.6 C 13.6 37.1 13 41.8 14.8 45.9 C 16.6 50 20.5 52.7 25 53 L 25 53 L 73 53 C 78.2 52.8 82.1 48.6 82.1 43.5 Z" stroke-linecap="round" />
</g>
<g transform="matrix(3.79 0 0 3.77 250.59 453.47)" id="PWAcdnrlRf6orbn_iYbMm"  >
<path style="stroke: none; stroke-width: 1; stroke-dasharray: none; stroke-linecap: butt; stroke-dashoffset: 0; stroke-linejoin: miter; stroke-miterlimit: 4; fill: rgb(137,143,150); fill-rule: nonzero; opacity: 1;" vector-effect="non-scaling-stroke"  transform=" translate(-48.1, -69)" d="M 56.1 65 L 47.6 65 L 50.8 57 L 43.2 57 L 40.1 70 L 46.5 70 L 42.6 81 Z" stroke-linecap="round" />
</g>
<g transform="matrix(7.28 0 0 7.25 360.58 451.74)" id="LPQxpKGpiCFXyQtozIHFZ"  >
<path style="stroke: none; stroke-width: 1; stroke-dasharray: none; stroke-linecap: butt; stroke-dashoffset: 0; stroke-linejoin: miter; stroke-miterlimit: 4; fill: rgb(137,143,150); fill-rule: nonzero; opacity: 1;" vector-effect="non-scaling-stroke"  transform=" translate(-63.1, -63)" d="M 67.1 61 L 62.8 61 L 64.4 57 L 60.7 57 L 59.1 63.5 L 62.3 63.5 L 60.3 69 Z" stroke-linecap="round" />
</g>
<g transform="matrix(7.28 0 0 7.25 149.34 451.74)" id="b7IUUIJ4mEwsvwjQouPvH"  >
<path style="stroke: none; stroke-width: 1; stroke-dasharray: none; stroke-linecap: butt; stroke-dashoffset: 0; stroke-linejoin: miter; stroke-miterlimit: 4; fill: rgb(137,143,150); fill-rule: nonzero; opacity: 1;" vector-effect="non-scaling-stroke"  transform=" translate(-34.1, -63)" d="M 38.1 61 L 33.8 61 L 35.4 57 L 31.7 57 L 30.1 63.5 L 33.3 63.5 L 31.3 69 Z" stroke-linecap="round" />
</g>
</svg>