<svg width="40" height="36" viewBox="0 0 40 36" fill="none" xmlns="http://www.w3.org/2000/svg">
<g clip-path="url(#clip0_990_8679)">
<path d="M14.0177 24.071C11.8938 24.071 9.84074 24.1418 7.71685 24.071C5.69331 23.9927 3.77318 23.1564 2.33745 21.7283C0.901719 20.3002 0.0553233 18.3846 -0.0337997 16.3615C-0.122923 14.3384 0.551743 12.3557 1.85633 10.8069C3.16092 9.25802 5.00008 8.25624 7.00889 8.00024C7.95348 7.87212 8.91364 7.92014 9.84074 8.14184C10.1947 8.21263 10.2655 8.07104 10.3363 7.78786C10.7842 6.56562 11.6079 5.51671 12.689 4.79171C13.7702 4.06671 15.0532 3.70288 16.354 3.75245C17.2109 3.76266 18.0557 3.95575 18.8319 4.31881C19.1151 4.4604 19.1859 4.4604 19.3983 4.17721C20.3246 2.40835 21.879 1.04988 23.7559 0.368658C25.6329 -0.31256 27.6967 -0.267282 29.542 0.495655C31.3872 1.25859 32.8804 2.68402 33.7283 4.49183C34.5761 6.29964 34.7172 8.35917 34.1239 10.2657C34.0531 10.4781 34.0531 10.6197 34.4071 10.6905C35.7577 10.8924 37.0106 11.5136 37.9889 12.4665C38.9671 13.4193 39.6211 14.6554 39.8584 16.0002C40.0406 16.92 40.0305 17.8676 39.8287 18.7833C39.6269 19.699 39.2379 20.563 38.686 21.3211C38.1341 22.0791 37.4313 22.7148 36.6218 23.188C35.8123 23.6613 34.9136 23.9619 33.9823 24.071C32.9204 24.1418 31.9292 24.071 30.9381 24.071C28.7434 24.1418 26.4779 24.071 24.2832 24.071L27.3275 20.1772H22.2301C21.7345 20.1772 21.7345 20.1772 21.8761 19.7524L24.8496 13.0976C24.9912 12.8144 24.9912 12.7436 24.6372 12.7436H18.4071C18.1947 12.7436 18.0531 12.7436 17.9823 13.0268C16.6372 16.7082 15.2921 20.3896 14.0177 24.071Z" fill="#888E95"/>
<path d="M14.0178 24.0716C15.2922 20.3902 16.6373 16.7087 17.9824 13.0273C18.0532 12.7441 18.1948 12.7441 18.4072 12.7441H24.6373C24.9913 12.7441 24.9913 12.8149 24.8497 13.0981L21.8762 19.753C21.7346 20.1777 21.7346 20.1778 22.2302 20.1778H27.3276L24.2833 24.0716L21.2391 27.8946L15.4338 35.1866C15.3687 35.2898 15.2679 35.3655 15.1506 35.399L15.9293 33.4875L19.3276 24.5671C19.4692 24.1423 19.4692 24.1424 19.0444 24.0716H14.0178Z" fill="#FFC545"/>
</g>
<defs>
<clipPath id="clip0_990_8679">
<rect width="40" height="35.3982" fill="white"/>
</clipPath>
</defs>
</svg>
