<svg width="21" height="28" viewBox="0 0 21 28" fill="none" xmlns="http://www.w3.org/2000/svg">
<g clip-path="url(#clip0_821_12757)">
<path d="M21.0003 17.8679L20.9195 18.892C20.806 20.3168 20.3664 21.6963 19.6346 22.9238C18.9029 24.1513 17.8987 25.1939 16.6998 25.9709C15.3921 26.9 13.8551 27.4531 12.2556 27.57C11.1508 27.6657 10.0406 27.6807 8.93363 27.6149C7.00724 27.4735 5.16769 26.7565 3.65332 25.5568C2.13896 24.3571 1.01958 22.73 0.440249 20.8863C0.0656147 19.6383 -0.0744117 18.3315 0.0272601 17.0324C0.212485 14.6703 0.82071 12.3607 1.8229 10.214C1.93962 9.94448 1.98451 9.92651 2.27181 10.0074L5.2795 10.9057L5.5668 10.9776C5.65659 10.5733 5.72841 10.187 5.81819 9.80073C6.15403 8.08441 6.87258 6.46604 7.92032 5.06617C8.96806 3.6663 10.318 2.52101 11.8695 1.71564L15.0208 0.00878906C15.0208 0.395077 14.9311 0.745451 14.8951 1.0958C14.7874 2.21873 14.6078 3.33267 14.5989 4.4556C14.5663 5.56569 14.7787 6.6693 15.2209 7.68789C15.6632 8.70648 16.3245 9.615 17.1576 10.3487C17.9221 11.0088 18.6226 11.7397 19.2496 12.5317C20.1692 13.7745 20.7368 15.2424 20.8926 16.7809C20.9375 17.1312 20.9554 17.4816 20.9824 17.8319L21.0003 17.8679ZM15.6852 24.6773L15.8828 24.5605C17.3023 23.5773 18.3698 22.165 18.9289 20.5306C19.4879 18.8962 19.509 17.1256 18.9892 15.4783C18.5445 14.1737 17.7567 13.0131 16.7087 12.1185C15.8678 11.4121 15.125 10.5963 14.5001 9.69293C13.3997 7.96212 12.8719 5.9285 12.9918 3.88065C12.9918 3.56623 12.9918 3.25181 13.0546 2.90146C11.1535 3.80946 9.57162 5.27205 8.51715 7.09682C7.46267 8.92158 6.98499 11.023 7.14696 13.1246L2.86436 11.8849C2.73866 12.2083 2.62196 12.4958 2.5232 12.7832C1.88123 14.5338 1.57659 16.3901 1.62538 18.2541C1.66481 19.4058 1.95427 20.5351 2.47365 21.5636C2.99302 22.5921 3.72988 23.4952 4.63306 24.2102C4.83956 24.3809 5.06401 24.5246 5.28847 24.6863V24.6324L5.2346 24.4707C4.83828 23.4258 4.72372 22.295 4.90241 21.1917C5.09238 20.1353 5.41202 19.1064 5.8541 18.1284C5.94388 17.9218 6.02469 17.8679 6.24017 17.9397C6.70704 18.0925 7.13799 18.2182 7.68566 18.3619C7.68566 18.2362 7.7485 18.1374 7.77543 18.0296C8.08927 16.518 8.99031 15.1932 10.2804 14.3464C11.1782 13.7624 12.1658 13.2773 13.1175 12.7473H13.2072C13.1264 13.448 13.0636 14.1398 12.9738 14.8225C12.8292 15.624 12.9293 16.4504 13.2611 17.1941C13.5559 17.735 13.9522 18.2139 14.4283 18.6045C15.1017 19.1873 15.6038 19.9426 15.8806 20.7894C16.1574 21.6361 16.1985 22.5423 15.9994 23.4107C15.9181 23.8383 15.8132 24.2612 15.6852 24.6773ZM6.85965 19.8352C6.72498 20.5539 6.54542 21.2546 6.48257 21.9553C6.38411 22.641 6.49209 23.3405 6.79273 23.9646C7.09337 24.5886 7.57303 25.1088 8.17048 25.4589C9.20078 26.0411 10.4122 26.2142 11.5642 25.944C12.251 25.8475 12.8913 25.5411 13.3975 25.0668C13.9037 24.5924 14.2512 23.9733 14.3924 23.2939C14.588 22.6473 14.5811 21.9563 14.3724 21.3139C14.1637 20.6714 13.7634 20.1084 13.2252 19.7005C12.2872 18.9706 11.6485 17.9225 11.4296 16.7539C11.3667 16.3946 11.2949 16.0442 11.2231 15.6939H11.1602L11.0525 15.7657C10.511 16.1808 10.0689 16.7115 9.75829 17.3191C9.44767 17.9268 9.27636 18.596 9.25684 19.2783C9.25684 19.6735 9.25684 20.0778 9.25684 20.509L6.85965 19.8352Z" fill="white"/>
</g>
<defs>
<clipPath id="clip0_821_12757">
<rect width="21" height="27.66" fill="white"/>
</clipPath>
</defs>
</svg>
