<svg width="24" height="25" viewBox="0 0 24 25" fill="none" xmlns="http://www.w3.org/2000/svg">
<path d="M9.75 22.4677V17.1128C9.75 16.7385 10.125 16.3566 10.5 16.3566H13.5C13.875 16.3566 14.25 16.7385 14.25 17.1205V22.4677C14.25 22.6703 14.329 22.8646 14.4697 23.0078C14.6103 23.1511 14.8011 23.2316 15 23.2316H21C21.1989 23.2316 21.3897 23.1511 21.5303 23.0078C21.671 22.8646 21.75 22.6703 21.75 22.4677V11.7732C21.7502 11.6728 21.7309 11.5734 21.6934 11.4806C21.6558 11.3878 21.6006 11.3035 21.531 11.2324L19.5 9.16531V4.13434C19.5 3.93174 19.421 3.73745 19.2803 3.59419C19.1397 3.45093 18.9489 3.37045 18.75 3.37045H17.25C17.0511 3.37045 16.8603 3.45093 16.7197 3.59419C16.579 3.73745 16.5 3.93174 16.5 4.13434V6.10976L12.531 2.06573C12.4613 1.99459 12.3786 1.93815 12.2875 1.89964C12.1963 1.86113 12.0987 1.84131 12 1.84131C11.9014 1.84131 11.8037 1.86113 11.7126 1.89964C11.6214 1.93815 11.5387 1.99459 11.469 2.06573L2.469 11.2324C2.3994 11.3035 2.34423 11.3878 2.30665 11.4806C2.26908 11.5734 2.24983 11.6728 2.25 11.7732V22.4677C2.25 22.6703 2.32902 22.8646 2.46967 23.0078C2.61032 23.1511 2.80109 23.2316 3 23.2316H9C9.19892 23.2316 9.38968 23.1511 9.53033 23.0078C9.67098 22.8646 9.75 22.6703 9.75 22.4677Z" fill="white"/>
</svg>
