<svg width="24" height="25" viewBox="0 0 24 25" fill="none" xmlns="http://www.w3.org/2000/svg">
<path d="M12.531 2.04717C12.4613 1.97604 12.3786 1.9196 12.2875 1.88109C12.1963 1.84258 12.0987 1.82275 12 1.82275C11.9014 1.82275 11.8037 1.84258 11.7126 1.88109C11.6214 1.9196 11.5387 1.97604 11.469 2.04717L2.469 11.2138C2.3994 11.2849 2.34423 11.3693 2.30665 11.4621C2.26908 11.5549 2.24983 11.6543 2.25 11.7547V22.4491C2.25 22.6517 2.32902 22.846 2.46967 22.9893C2.61032 23.1325 2.80109 23.213 3 23.213H9.75C9.94891 23.213 10.1397 23.1325 10.2803 22.9893C10.421 22.846 10.5 22.6517 10.5 22.4491V16.338H13.5V22.4491C13.5 22.6517 13.579 22.846 13.7197 22.9893C13.8603 23.1325 14.0511 23.213 14.25 23.213H21C21.1989 23.213 21.3897 23.1325 21.5303 22.9893C21.671 22.846 21.75 22.6517 21.75 22.4491V11.7547C21.7502 11.6543 21.7309 11.5549 21.6933 11.4621C21.6558 11.3693 21.6006 11.2849 21.531 11.2138L19.5 9.14676V4.11579C19.5 3.91319 19.421 3.71889 19.2803 3.57564C19.1397 3.43238 18.9489 3.3519 18.75 3.3519H17.25C17.0511 3.3519 16.8603 3.43238 16.7197 3.57564C16.579 3.71889 16.5 3.91319 16.5 4.11579V6.0912L12.531 2.04717ZM3.75 21.6852V12.0709L12 3.66815L20.25 12.0709V21.6852H15V15.5741C15 15.3715 14.921 15.1772 14.7803 15.034C14.6397 14.8907 14.4489 14.8102 14.25 14.8102H9.75C9.55109 14.8102 9.36032 14.8907 9.21967 15.034C9.07902 15.1772 9 15.3715 9 15.5741V21.6852H3.75Z" fill="white"/>
</svg>
