<svg width="320" height="100" viewBox="0 0 320 100" fill="none" xmlns="http://www.w3.org/2000/svg">
<rect y="26" width="320" height="50" rx="10" fill="#F9E21A"/>
<path d="M114.81 46.654V46.822C114.81 50.35 113.69 53.024 109.672 55.026L110.47 56.146C115.132 53.808 116.238 50.462 116.238 46.654H114.81ZM110.414 46.654V47.83H115.678V46.654H110.414ZM114.726 49.804L109.756 50.126L109.966 51.4L114.726 50.938V49.804ZM118.086 45.352V58.148H119.556V45.352H118.086ZM119.164 50.42V51.624H121.474V50.42H119.164ZM127.269 46.654V46.822C127.269 50.35 126.149 53.024 122.131 55.026L122.929 56.146C127.591 53.808 128.697 50.462 128.697 46.654H127.269ZM122.873 46.654V47.83H128.137V46.654H122.873ZM127.185 49.804L122.215 50.126L122.425 51.4L127.185 50.938V49.804ZM130.545 45.352V58.148H132.015V45.352H130.545ZM131.623 50.42V51.624H133.933V50.42H131.623ZM139.602 52.576V55.642H141.058V52.576H139.602ZM140.33 46.122C137.628 46.122 135.626 47.48 135.626 49.552C135.626 51.638 137.628 52.982 140.33 52.982C143.046 52.982 145.034 51.638 145.034 49.552C145.034 47.48 143.046 46.122 140.33 46.122ZM140.33 47.284C142.248 47.284 143.606 48.166 143.606 49.552C143.606 50.952 142.248 51.82 140.33 51.82C138.426 51.82 137.054 50.952 137.054 49.552C137.054 48.166 138.426 47.284 140.33 47.284ZM134.562 55.39V56.594H146.154V55.39H134.562ZM151.963 48.838V50.014H154.693V48.838H151.963ZM151.879 52.044V53.22H154.651V52.044H151.879ZM156.541 45.366V58.162H157.955V45.366H156.541ZM153.951 45.674V57.546H155.323V45.674H153.951ZM151.081 46.934V47.214C151.081 50.266 149.877 52.632 146.923 54.41L147.763 55.446C151.263 53.374 152.495 50.406 152.495 46.934H151.081ZM147.567 46.934V48.124H151.613V46.934H147.567ZM166.354 48.586V49.79H169.028V48.586H166.354ZM168.608 45.366V52.982H170.078V45.366H168.608ZM165.808 53.318C163.134 53.318 161.496 54.228 161.496 55.74C161.496 57.28 163.134 58.162 165.808 58.162C168.482 58.162 170.12 57.28 170.12 55.74C170.12 54.228 168.482 53.318 165.808 53.318ZM165.808 54.452C167.628 54.452 168.664 54.9 168.664 55.74C168.664 56.58 167.628 57.028 165.808 57.028C164.002 57.028 162.952 56.58 162.952 55.74C162.952 54.9 164.002 54.452 165.808 54.452ZM162.602 46.654V47.592C162.602 49.342 161.468 51.05 159.466 51.75L160.222 52.912C162.49 52.1 163.792 49.986 163.792 47.592V46.654H162.602ZM162.896 46.654V47.578C162.896 49.79 164.142 51.806 166.354 52.576L167.082 51.414C165.164 50.756 164.072 49.174 164.072 47.578V46.654H162.896ZM159.886 46.234V47.41H166.746V46.234H159.886ZM177.707 46.108C175.047 46.108 173.003 47.536 173.003 49.706C173.003 51.89 175.047 53.318 177.707 53.318C180.381 53.318 182.411 51.89 182.411 49.706C182.411 47.536 180.381 46.108 177.707 46.108ZM177.707 47.298C179.611 47.298 180.997 48.236 180.997 49.706C180.997 51.162 179.611 52.114 177.707 52.114C175.817 52.114 174.431 51.162 174.431 49.706C174.431 48.236 175.817 47.298 177.707 47.298ZM171.939 55.32V56.538H183.531V55.32H171.939ZM184.397 55.46V56.664H195.989V55.46H184.397ZM189.437 52.856V55.95H190.893V52.856H189.437ZM185.755 46.262V47.438H193.147V49.146H185.783V52.688H187.239V50.308H194.603V46.262H185.755ZM185.783 52.086V53.276H194.897V52.086H185.783ZM199.581 55.46V56.664H211.173V55.46H199.581ZM204.621 52.856V55.95H206.077V52.856H204.621ZM200.939 46.262V47.438H208.331V49.146H200.967V52.688H202.423V50.308H209.787V46.262H200.939ZM200.967 52.086V53.276H210.081V52.086H200.967ZM213.258 46.64V47.816H221.434V46.64H213.258ZM212.04 55.18V56.384H223.604V55.18H212.04ZM220.65 46.64V48.026C220.65 49.678 220.65 51.554 220.16 54.088L221.63 54.228C222.106 51.526 222.106 49.734 222.106 48.026V46.64H220.65ZM233.571 45.38V54.648H235.041V45.38H233.571ZM226.683 56.72V57.91H235.405V56.72H226.683ZM226.683 53.71V57.168H228.153V53.71H226.683ZM228.139 46.234C226.207 46.234 224.737 47.55 224.737 49.426C224.737 51.274 226.207 52.618 228.139 52.618C230.071 52.618 231.527 51.274 231.527 49.426C231.527 47.55 230.071 46.234 228.139 46.234ZM228.139 47.494C229.259 47.494 230.099 48.25 230.099 49.426C230.099 50.574 229.259 51.33 228.139 51.33C227.019 51.33 226.165 50.574 226.165 49.426C226.165 48.25 227.019 47.494 228.139 47.494Z" fill="#36373C"/>
<path d="M87 59.75C92.5225 59.75 97 55.8325 97 51C97 46.1675 92.5225 42.25 87 42.25C81.4775 42.25 77 46.1675 77 51C77 53.2 77.9288 55.2125 79.4625 56.75C79.3412 58.02 78.9412 59.4125 78.4987 60.4575C78.4 60.69 78.5912 60.95 78.84 60.91C81.66 60.4475 83.3362 59.7375 84.065 59.3675C85.0224 59.6228 86.0091 59.7514 87 59.75Z" fill="#3B1E1E"/>
</svg>
