<svg width="250" height="40" viewBox="0 0 250 40" fill="none" xmlns="http://www.w3.org/2000/svg">
<rect width="250" height="40" rx="10" fill="#F9E21A"/>
<path d="M81.6538 15.1276V15.2956C81.6538 18.8236 80.5338 21.4976 76.5158 23.4996L77.3138 24.6196C81.9758 22.2816 83.0818 18.9356 83.0818 15.1276H81.6538ZM77.2578 15.1276V16.3036H82.5218V15.1276H77.2578ZM81.5698 18.2776L76.5998 18.5996L76.8098 19.8736L81.5698 19.4116V18.2776ZM84.9298 13.8256V26.6216H86.3998V13.8256H84.9298ZM86.0078 18.8936V20.0976H88.3178V18.8936H86.0078ZM94.1127 15.1276V15.2956C94.1127 18.8236 92.9927 21.4976 88.9747 23.4996L89.7727 24.6196C94.4347 22.2816 95.5407 18.9356 95.5407 15.1276H94.1127ZM89.7167 15.1276V16.3036H94.9807V15.1276H89.7167ZM94.0287 18.2776L89.0587 18.5996L89.2687 19.8736L94.0287 19.4116V18.2776ZM97.3887 13.8256V26.6216H98.8587V13.8256H97.3887ZM98.4667 18.8936V20.0976H100.777V18.8936H98.4667ZM106.446 21.0496V24.1156H107.902V21.0496H106.446ZM107.174 14.5956C104.472 14.5956 102.47 15.9536 102.47 18.0256C102.47 20.1116 104.472 21.4556 107.174 21.4556C109.89 21.4556 111.878 20.1116 111.878 18.0256C111.878 15.9536 109.89 14.5956 107.174 14.5956ZM107.174 15.7576C109.092 15.7576 110.45 16.6396 110.45 18.0256C110.45 19.4256 109.092 20.2936 107.174 20.2936C105.27 20.2936 103.898 19.4256 103.898 18.0256C103.898 16.6396 105.27 15.7576 107.174 15.7576ZM101.406 23.8636V25.0676H112.998V23.8636H101.406ZM113.864 23.9336V25.1376H125.456V23.9336H113.864ZM118.904 21.3296V24.4236H120.36V21.3296H118.904ZM115.222 14.7356V15.9116H122.614V17.6196H115.25V21.1616H116.706V18.7816H124.07V14.7356H115.222ZM115.25 20.5596V21.7496H124.364V20.5596H115.25ZM129.594 25.4736H135.488V24.1436H133.472V15.1696H132.254C131.652 15.5336 130.98 15.7856 130 15.9536V16.9756H131.862V24.1436H129.594V25.4736ZM136.612 23.8916V25.0956H148.204V23.8916H136.612ZM141.666 21.1896V24.5216H143.122V21.1896H141.666ZM141.652 16.5136V16.7936C141.652 18.5436 139.888 20.0836 137.116 20.4616L137.662 21.6236C140.77 21.1476 142.954 19.3276 142.954 16.7936V16.5136H141.652ZM141.848 16.5136V16.7936C141.848 19.3276 144.032 21.1476 147.126 21.6236L147.672 20.4616C144.9 20.0836 143.136 18.5436 143.136 16.7936V16.5136H141.848ZM137.634 15.7296V16.9196H147.14V15.7296H137.634ZM141.666 14.0636V16.1916H143.122V14.0636H141.666ZM155.254 21.5536V23.6536H156.724V21.5536H155.254ZM160.854 13.8396V26.6356H162.324V13.8396H160.854ZM152.048 24.3396C154.358 24.3396 157.396 24.3116 160.21 23.8216L160.112 22.7436C157.382 23.1076 154.232 23.1216 151.866 23.1356L152.048 24.3396ZM152.118 15.3376V16.4996H159.86V15.3376H152.118ZM155.982 17.1296C154.134 17.1296 152.86 18.0816 152.86 19.5096C152.86 20.9516 154.134 21.8896 155.982 21.8896C157.844 21.8896 159.118 20.9516 159.118 19.5096C159.118 18.0816 157.844 17.1296 155.982 17.1296ZM155.982 18.2496C157.004 18.2496 157.718 18.7396 157.718 19.5096C157.718 20.2936 157.004 20.7696 155.982 20.7696C154.974 20.7696 154.26 20.2936 154.26 19.5096C154.26 18.7396 154.974 18.2496 155.982 18.2496ZM155.254 13.8676V15.9956H156.724V13.8676H155.254ZM167.741 20.3356V23.1636H169.211V20.3356H167.741ZM173.383 13.8396V23.5556H174.853V13.8396H173.383ZM165.907 25.1936V26.3836H175.147V25.1936H165.907ZM165.907 22.6176V25.5156H167.377V22.6176H165.907ZM164.381 20.8256C166.691 20.8256 169.743 20.7696 172.487 20.3216L172.389 19.2576C169.687 19.6076 166.537 19.6356 164.185 19.6356L164.381 20.8256ZM170.863 21.3436V22.3796H173.733V21.3436H170.863ZM168.329 14.3296C166.453 14.3296 165.165 15.2256 165.165 16.5836C165.165 17.9416 166.453 18.8236 168.329 18.8236C170.191 18.8236 171.493 17.9416 171.493 16.5836C171.493 15.2256 170.191 14.3296 168.329 14.3296ZM168.329 15.4076C169.365 15.4076 170.093 15.8416 170.093 16.5836C170.093 17.3116 169.365 17.7456 168.329 17.7456C167.279 17.7456 166.551 17.3116 166.551 16.5836C166.551 15.8416 167.279 15.4076 168.329 15.4076ZM185.156 13.8256V26.6216H186.626V13.8256H185.156ZM186.234 18.8936V20.0976H188.544V18.8936H186.234ZM181.838 15.1836V15.4356C181.838 18.8516 180.144 21.4136 176.686 23.1776L177.512 24.2976C181.698 22.1976 183.28 18.9076 183.28 15.1836H181.838ZM177.33 15.1836V16.3736H182.594V15.1836H177.33ZM198.244 13.8396V20.7136H199.714V13.8396H198.244ZM191.356 21.3156V26.4816H199.714V21.3156H198.258V22.7016H192.798V21.3156H191.356ZM192.798 23.8496H198.258V25.3056H192.798V23.8496ZM192.812 14.4136C190.852 14.4136 189.41 15.6316 189.41 17.3956C189.41 19.1456 190.852 20.3776 192.812 20.3776C194.772 20.3776 196.2 19.1456 196.2 17.3956C196.2 15.6316 194.772 14.4136 192.812 14.4136ZM192.812 15.6316C193.96 15.6316 194.772 16.3316 194.772 17.3956C194.772 18.4596 193.96 19.1596 192.812 19.1596C191.664 19.1596 190.838 18.4596 190.838 17.3956C190.838 16.3316 191.664 15.6316 192.812 15.6316Z" fill="#36373C"/>
<g clip-path="url(#clip0_1559_8036)">
<path d="M58.8125 27C63.127 27 66.625 23.866 66.625 20C66.625 16.134 63.127 13 58.8125 13C54.498 13 51 16.134 51 20C51 21.76 51.7256 23.37 52.9238 24.6C52.8291 25.616 52.5166 26.73 52.1709 27.566C52.0938 27.752 52.2432 27.96 52.4375 27.928C54.6406 27.558 55.9502 26.99 56.5195 26.694C57.2675 26.8983 58.0384 27.0012 58.8125 27Z" fill="#3B1E1E"/>
</g>
<defs>
<clipPath id="clip0_1559_8036">
<rect width="15.625" height="16" fill="white" transform="translate(51 12)"/>
</clipPath>
</defs>
</svg>
