<svg width="24" height="24" viewBox="0 0 24 24" fill="none" xmlns="http://www.w3.org/2000/svg">
<path d="M20.25 1.50047C19.6533 1.50047 19.081 1.73752 18.659 2.15948C18.2371 2.58144 18 3.15373 18 3.75047C18 4.34721 18.2371 4.9195 18.659 5.34146C19.081 5.76342 19.6533 6.00047 20.25 6.00047C20.8468 6.00047 21.4191 5.76342 21.841 5.34146C22.263 4.9195 22.5 4.34721 22.5 3.75047C22.5 3.15373 22.263 2.58144 21.841 2.15948C21.4191 1.73752 20.8468 1.50047 20.25 1.50047ZM16.5 3.75047C16.4999 2.87062 16.8092 2.01874 17.3737 1.34389C17.9383 0.669031 18.7221 0.214166 19.5882 0.0588767C20.4542 -0.0964129 21.3473 0.0577611 22.1111 0.494425C22.875 0.931088 23.461 1.62243 23.7666 2.44751C24.0722 3.27258 24.0779 4.17884 23.7828 5.00773C23.4877 5.83662 22.9106 6.53535 22.1523 6.98169C21.3941 7.42802 20.5031 7.59352 19.6351 7.44925C18.7672 7.30497 17.9776 6.8601 17.4045 6.19247L7.32753 10.8725C7.55919 11.6066 7.55919 12.3943 7.32753 13.1285L17.4045 17.8085C18.0103 17.104 18.856 16.6494 19.7778 16.5329C20.6996 16.4165 21.6318 16.6463 22.3938 17.178C23.1558 17.7097 23.6932 18.5053 23.902 19.4107C24.1108 20.316 23.9761 21.2667 23.5239 22.0783C23.0717 22.89 22.3344 23.5049 21.4547 23.8039C20.5749 24.1029 19.6156 24.0646 18.7624 23.6966C17.9093 23.3285 17.2232 22.6569 16.8371 21.8118C16.451 20.9667 16.3923 20.0083 16.6725 19.1225L6.59553 14.4425C6.09668 15.0238 5.43176 15.4385 4.6902 15.6306C3.94864 15.8227 3.16603 15.7832 2.44764 15.5172C1.72925 15.2512 1.10955 14.7716 0.671893 14.1429C0.23424 13.5142 -0.000366211 12.7665 -0.000366211 12.0005C-0.000366211 11.2344 0.23424 10.4868 0.671893 9.85804C1.10955 9.22932 1.72925 8.74972 2.44764 8.48375C3.16603 8.21778 3.94864 8.1782 4.6902 8.37034C5.43176 8.56248 6.09668 8.97711 6.59553 9.55847L16.6725 4.87847C16.5578 4.51347 16.4997 4.13307 16.5 3.75047ZM3.75003 9.75047C3.15329 9.75047 2.581 9.98752 2.15904 10.4095C1.73708 10.8314 1.50003 11.4037 1.50003 12.0005C1.50003 12.5972 1.73708 13.1695 2.15904 13.5915C2.581 14.0134 3.15329 14.2505 3.75003 14.2505C4.34677 14.2505 4.91906 14.0134 5.34102 13.5915C5.76298 13.1695 6.00003 12.5972 6.00003 12.0005C6.00003 11.4037 5.76298 10.8314 5.34102 10.4095C4.91906 9.98752 4.34677 9.75047 3.75003 9.75047ZM20.25 18.0005C19.6533 18.0005 19.081 18.2375 18.659 18.6595C18.2371 19.0814 18 19.6537 18 20.2505C18 20.8472 18.2371 21.4195 18.659 21.8415C19.081 22.2634 19.6533 22.5005 20.25 22.5005C20.8468 22.5005 21.4191 22.2634 21.841 21.8415C22.263 21.4195 22.5 20.8472 22.5 20.2505C22.5 19.6537 22.263 19.0814 21.841 18.6595C21.4191 18.2375 20.8468 18.0005 20.25 18.0005Z" fill="white"/>
</svg>
