<svg width="134" height="37" viewBox="0 0 134 37" fill="none" xmlns="http://www.w3.org/2000/svg">
<path d="M11.9282 28.3418C10.9484 28.3418 10.0711 28.1823 9.29639 27.8633C8.52165 27.5329 7.7526 26.9461 6.98926 26.103H6.68164C6.88672 27.4588 6.98926 28.3019 6.98926 28.6323V36.4082H0.307129V8.63721H5.7417L6.68164 11.0981H6.98926C8.23112 9.22965 9.9458 8.29541 12.1333 8.29541C14.2752 8.29541 15.9557 9.18408 17.1748 10.9614C18.3939 12.7388 19.0034 15.1769 19.0034 18.2759C19.0034 21.3976 18.3654 23.8586 17.0894 25.6587C15.8247 27.4474 14.1043 28.3418 11.9282 28.3418ZM9.68945 13.542C8.70964 13.542 8.02035 13.8952 7.62158 14.6016C7.23421 15.2965 7.02344 16.3333 6.98926 17.7119V18.2417C6.98926 19.9051 7.21143 21.1071 7.65576 21.8477C8.1001 22.5882 8.80078 22.9585 9.75781 22.9585C10.6123 22.9585 11.2332 22.5939 11.6206 21.8647C12.008 21.1242 12.2017 19.9051 12.2017 18.2075C12.2017 16.5441 12.008 15.3535 11.6206 14.6357C11.2332 13.9066 10.5895 13.542 9.68945 13.542ZM40.2728 18.2759C40.2728 21.4432 39.4183 23.9155 37.7093 25.6929C36.0117 27.4588 33.6305 28.3418 30.5657 28.3418C27.6263 28.3418 25.285 27.436 23.5418 25.6245C21.81 23.813 20.9441 21.3634 20.9441 18.2759C20.9441 15.12 21.7929 12.6704 23.4905 10.9272C25.1995 9.17269 27.5921 8.29541 30.6683 8.29541C32.5709 8.29541 34.2514 8.69987 35.7098 9.50879C37.1681 10.3177 38.2903 11.4798 39.0765 12.9951C39.874 14.499 40.2728 16.2593 40.2728 18.2759ZM27.7288 18.2759C27.7288 19.9393 27.951 21.2096 28.3953 22.0869C28.8396 22.9528 29.5859 23.3857 30.6341 23.3857C31.6709 23.3857 32.4 22.9528 32.8216 22.0869C33.2545 21.2096 33.471 19.9393 33.471 18.2759C33.471 16.6239 33.2545 15.3763 32.8216 14.5332C32.3886 13.6901 31.6481 13.2686 30.5999 13.2686C29.5745 13.2686 28.8396 13.6901 28.3953 14.5332C27.951 15.3649 27.7288 16.6125 27.7288 18.2759ZM49.733 28H43.0509V1.4082H49.733V28ZM50.973 8.63721H58.0141L61.2953 19.7456C61.4548 20.3267 61.5631 21.0273 61.62 21.8477H61.7567C61.8479 21.0615 61.9846 20.3722 62.1669 19.7798L65.5336 8.63721H72.3524L64.6962 29.2305C63.7164 31.8509 62.5087 33.7023 61.0731 34.7847C59.649 35.867 57.7862 36.4082 55.4848 36.4082C54.5961 36.4082 53.6846 36.3114 52.7504 36.1177V30.8711C53.3542 31.0078 54.0435 31.0762 54.8183 31.0762C55.4107 31.0762 55.9291 30.9622 56.3734 30.7344C56.8178 30.5065 57.2051 30.1818 57.5355 29.7603C57.8659 29.3501 58.2191 28.6722 58.5951 27.7266L50.973 8.63721ZM85.2478 28.3418C84.2679 28.3418 83.3907 28.1823 82.6159 27.8633C81.8412 27.5329 81.0721 26.9461 80.3088 26.103H80.0012C80.2063 27.4588 80.3088 28.3019 80.3088 28.6323V36.4082H73.6267V8.63721H79.0612L80.0012 11.0981H80.3088C81.5507 9.22965 83.2653 8.29541 85.4528 8.29541C87.5948 8.29541 89.2753 9.18408 90.4943 10.9614C91.7134 12.7388 92.323 15.1769 92.323 18.2759C92.323 21.3976 91.6849 23.8586 90.4089 25.6587C89.1442 27.4474 87.4239 28.3418 85.2478 28.3418ZM83.009 13.542C82.0292 13.542 81.3399 13.8952 80.9411 14.6016C80.5537 15.2965 80.343 16.3333 80.3088 17.7119V18.2417C80.3088 19.9051 80.531 21.1071 80.9753 21.8477C81.4196 22.5882 82.1203 22.9585 83.0773 22.9585C83.9318 22.9585 84.5528 22.5939 84.9401 21.8647C85.3275 21.1242 85.5212 19.9051 85.5212 18.2075C85.5212 16.5441 85.3275 15.3535 84.9401 14.6357C84.5528 13.9066 83.9091 13.542 83.009 13.542ZM113.592 18.2759C113.592 21.4432 112.738 23.9155 111.029 25.6929C109.331 27.4588 106.95 28.3418 103.885 28.3418C100.946 28.3418 98.6045 27.436 96.8613 25.6245C95.1296 23.813 94.2637 21.3634 94.2637 18.2759C94.2637 15.12 95.1125 12.6704 96.8101 10.9272C98.519 9.17269 100.912 8.29541 103.988 8.29541C105.89 8.29541 107.571 8.69987 109.029 9.50879C110.488 10.3177 111.61 11.4798 112.396 12.9951C113.194 14.499 113.592 16.2593 113.592 18.2759ZM101.048 18.2759C101.048 19.9393 101.271 21.2096 101.715 22.0869C102.159 22.9528 102.905 23.3857 103.954 23.3857C104.99 23.3857 105.72 22.9528 106.141 22.0869C106.574 21.2096 106.791 19.9393 106.791 18.2759C106.791 16.6239 106.574 15.3763 106.141 14.5332C105.708 13.6901 104.968 13.2686 103.919 13.2686C102.894 13.2686 102.159 13.6901 101.715 14.5332C101.271 15.3649 101.048 16.6125 101.048 18.2759ZM123.053 28H116.37V1.4082H123.053V28ZM133.35 28H126.668V8.63721H133.35V28ZM126.497 3.81787C126.497 2.81527 126.776 2.06901 127.335 1.5791C127.893 1.08919 128.793 0.844238 130.035 0.844238C131.277 0.844238 132.182 1.09489 132.752 1.59619C133.322 2.09749 133.607 2.83805 133.607 3.81787C133.607 5.77751 132.416 6.75732 130.035 6.75732C127.676 6.75732 126.497 5.77751 126.497 3.81787Z" fill="#4F0D92"/>
</svg>
