<svg width="80" height="80" viewBox="0 0 80 80" fill="none" xmlns="http://www.w3.org/2000/svg">
<path d="M40 80C62.0914 80 80 62.0914 80 40C80 17.9086 62.0914 0 40 0C17.9086 0 0 17.9086 0 40C0 62.0914 17.9086 80 40 80Z" fill="#A4F028"/>
<path d="M33.9 35.7C33.9 36.1774 33.7104 36.6352 33.3728 36.9728C33.0352 37.3104 32.5774 37.5 32.1 37.5C31.6401 37.4744 31.2076 37.2735 30.8914 36.9387C30.5751 36.6039 30.3993 36.1606 30.4 35.7C30.424 35.2569 30.6108 34.8383 30.9246 34.5246C31.2383 34.2108 31.6569 34.024 32.1 34C32.5606 33.9993 33.0039 34.1751 33.3387 34.4914C33.6735 34.8076 33.8744 35.2402 33.9 35.7Z" fill="#272730"/>
<path d="M49.6 35.7C49.6007 36.1606 49.4249 36.6039 49.1086 36.9387C48.7924 37.2735 48.3598 37.4744 47.9 37.5C47.4226 37.5 46.9648 37.3104 46.6272 36.9728C46.2896 36.6352 46.1 36.1774 46.1 35.7C46.1256 35.2402 46.3265 34.8076 46.6613 34.4914C46.9961 34.1751 47.4394 33.9993 47.9 34C48.1232 34 48.3443 34.044 48.5506 34.1294C48.7568 34.2148 48.9442 34.3401 49.1021 34.4979C49.2599 34.6558 49.3852 34.8432 49.4706 35.0494C49.556 35.2557 49.6 35.4768 49.6 35.7Z" fill="#272730"/>
<path d="M43.6 42.7C43.6 43.6547 43.2207 44.5704 42.5456 45.2455C41.8705 45.9207 40.9548 46.2999 40 46.2999C39.0452 46.2999 38.1295 45.9207 37.4544 45.2455C36.7793 44.5704 36.4 43.6547 36.4 42.7" stroke="#272730" stroke-miterlimit="10"/>
</svg>
