<svg width="24" height="24" viewBox="0 0 24 24" fill="none" xmlns="http://www.w3.org/2000/svg">
<circle cx="12" cy="12" r="11.25" stroke="#888E95" stroke-width="1.5"/>
<path d="M10.4716 15.216H12.1036C11.8316 12.816 14.6796 11.952 14.6796 9.63196C14.6796 7.74396 13.3996 6.68796 11.5276 6.68796C10.1836 6.68796 9.11165 7.32796 8.32765 8.22396L9.36765 9.18396C9.91165 8.57596 10.5676 8.20796 11.3196 8.20796C12.3276 8.20796 12.8876 8.86396 12.8876 9.75996C12.8876 11.488 10.0876 12.512 10.4716 15.216ZM11.3196 19.184C12.0076 19.184 12.5516 18.64 12.5516 17.888C12.5516 17.12 12.0076 16.592 11.3196 16.592C10.6156 16.592 10.0876 17.12 10.0876 17.888C10.0876 18.64 10.6156 19.184 11.3196 19.184Z" fill="#888E95"/>
</svg>
