<svg width="33" height="33" viewBox="0 0 33 33" fill="none" xmlns="http://www.w3.org/2000/svg">
<circle cx="16.5" cy="16.5" r="16.5" fill="#E1E6E8"/>
<g clip-path="url(#clip0_1533_5217)">
<path d="M21.3828 18.7891C22.524 17.2318 23.0352 15.3011 22.814 13.3831C22.5928 11.4652 21.6555 9.70149 20.1898 8.44489C18.7241 7.18829 16.8379 6.53145 14.9087 6.60578C12.9795 6.68012 11.1495 7.48015 9.78481 8.84581C8.42012 10.2115 7.6214 12.0421 7.54845 13.9713C7.47549 15.9006 8.13368 17.7863 9.39133 19.2511C10.649 20.7159 12.4133 21.6519 14.3314 21.8717C16.2495 22.0915 18.1799 21.579 19.7363 20.4367H19.7352C19.7705 20.4838 19.8082 20.5286 19.8507 20.5722L24.3882 25.1097C24.6092 25.3309 24.909 25.4552 25.2216 25.4553C25.5342 25.4554 25.8341 25.3313 26.0553 25.1103C26.2764 24.8893 26.4007 24.5895 26.4008 24.2769C26.4009 23.9643 26.2768 23.6644 26.0558 23.4432L21.5183 18.9057C21.4762 18.8631 21.4309 18.8237 21.3828 18.7879V18.7891ZM21.6869 14.2586C21.6869 15.1099 21.5192 15.9528 21.1935 16.7392C20.8677 17.5257 20.3902 18.2403 19.7883 18.8422C19.1864 19.4441 18.4718 19.9216 17.6854 20.2473C16.8989 20.5731 16.056 20.7408 15.2047 20.7408C14.3535 20.7408 13.5106 20.5731 12.7241 20.2473C11.9377 19.9216 11.2231 19.4441 10.6212 18.8422C10.0193 18.2403 9.54178 17.5257 9.21602 16.7392C8.89026 15.9528 8.7226 15.1099 8.7226 14.2586C8.7226 12.5395 9.40554 10.8907 10.6212 9.67506C11.8368 8.45942 13.4856 7.77649 15.2047 7.77649C16.9239 7.77649 18.5727 8.45942 19.7883 9.67506C21.0039 10.8907 21.6869 12.5395 21.6869 14.2586V14.2586Z" fill="#36373C"/>
</g>
<defs>
<clipPath id="clip0_1533_5217">
<rect width="18.8571" height="18.8571" fill="white" transform="translate(7.54297 6.6001)"/>
</clipPath>
</defs>
</svg>
