<svg width="40" height="40" viewBox="0 0 40 40" fill="none" xmlns="http://www.w3.org/2000/svg">
<g clip-path="url(#clip0_820_8168)">
<path d="M18.7858 0H21.2745C21.3801 0.0413849 21.49 0.0705492 21.6023 0.0869162C24.4372 0.31311 27.1913 1.14101 29.6806 2.51535C32.1699 3.88969 34.3373 5.77885 36.038 8.05674C37.7387 10.3346 38.9336 12.9488 39.543 15.7249C40.1524 18.5009 40.1622 21.375 39.5718 24.1551C36.8557 37.2322 22.0171 44.0381 10.3763 37.5263C7.63805 36.0528 5.29006 33.9492 3.52647 31.3893C1.76288 28.8294 0.634338 25.8867 0.234152 22.8046C0.153871 22.2831 0.080281 21.7617 0 21.2402V18.7932C0.0535207 18.4389 0.113731 18.0913 0.153872 17.7369C0.658933 13.3735 2.58761 9.29768 5.642 6.139C8.69639 2.98031 12.7065 0.914531 17.053 0.260738L18.7858 0ZM18.4579 37.1653V2.84138C14.1649 3.22044 10.1696 5.19258 7.25936 8.36918C4.3491 11.5458 2.73493 15.6965 2.73493 20.0033C2.73493 24.3102 4.3491 28.4609 7.25936 31.6375C10.1696 34.8141 14.1649 36.7862 18.4579 37.1653V37.1653ZM33.6244 30.5867C35.6152 28.0495 36.8521 25.0042 37.194 21.7982C37.5359 18.5922 36.9689 15.3547 35.5578 12.4553C32.3399 5.83654 25.8973 3.02858 21.5488 2.86812C21.5488 2.98178 21.5488 3.09544 21.5488 3.21578C21.5488 8.18987 21.5488 13.164 21.5488 18.1314C21.5581 18.3383 21.6412 18.5351 21.7829 18.6863C24.7399 21.6591 27.7059 24.6298 30.6807 27.5982L33.6244 30.5867ZM21.5822 22.9116V37.1586C24.3987 37.2589 30.0652 34.7785 31.5237 32.8598L21.5822 22.9116Z" fill="#C7C8CE"/>
</g>
<defs>
<clipPath id="clip0_820_8168">
<rect width="40" height="40" fill="white"/>
</clipPath>
</defs>
</svg>
